<svg width="328" height="171" viewBox="0 0 328 171" fill="none" xmlns="http://www.w3.org/2000/svg">
<g clip-path="url(#clip0)">
<rect width="328" height="171" fill="#FEC62E"/>
<g filter="url(#filter0_d)">
<rect x="149.422" y="11.6624" width="29.52" height="14.5778" fill="#FFFFFE"/>
<path d="M159.287 17.8332C159.505 17.5712 159.779 17.4402 160.11 17.4402C160.778 17.4402 161.117 17.8284 161.126 18.6048V20.5779H160.303V18.6275C160.303 18.451 160.265 18.321 160.189 18.2375C160.114 18.152 159.987 18.1093 159.811 18.1093C159.57 18.1093 159.395 18.2023 159.287 18.3884V20.5779H158.464V16.2045H159.287V17.8332ZM162.732 16.7398V17.4972H163.259V18.1008H162.732V19.6383C162.732 19.7522 162.754 19.8338 162.798 19.8832C162.841 19.9325 162.925 19.9572 163.048 19.9572C163.139 19.9572 163.22 19.9505 163.29 19.9373V20.5608C163.129 20.6101 162.963 20.6348 162.792 20.6348C162.215 20.6348 161.921 20.3435 161.909 19.7607V18.1008H161.459V17.4972H161.909V16.7398H162.732ZM164.489 17.4972L164.514 17.8417C164.733 17.5741 165.028 17.4402 165.4 17.4402C165.797 17.4402 166.069 17.5968 166.217 17.91C166.433 17.5968 166.742 17.4402 167.142 17.4402C167.476 17.4402 167.725 17.538 167.888 17.7335C168.052 17.9271 168.133 18.2194 168.133 18.6105V20.5779H167.308V18.6133C167.308 18.4387 167.273 18.3115 167.205 18.2318C167.137 18.1501 167.016 18.1093 166.843 18.1093C166.597 18.1093 166.426 18.227 166.331 18.4624L166.334 20.5779H165.511V18.6161C165.511 18.4377 165.476 18.3086 165.406 18.2289C165.335 18.1492 165.216 18.1093 165.047 18.1093C164.813 18.1093 164.644 18.2061 164.54 18.3998V20.5779H163.717V17.4972H164.489ZM169.637 20.5779H168.811V16.2045H169.637V20.5779Z" fill="#424242"/>
<rect x="150.151" y="12.3912" width="28.0622" height="13.12" stroke="#232946" stroke-width="1.45778"/>
</g>
<g filter="url(#filter1_d)">
<rect x="208.098" y="45.1912" width="30.6133" height="14.5778" fill="#FFFFFE"/>
<path d="M219.936 52.5948C219.936 53.0883 219.83 53.4737 219.62 53.7508C219.409 54.026 219.115 54.1636 218.737 54.1636C218.403 54.1636 218.136 54.0355 217.937 53.7793L217.9 54.1067H217.16V49.7334H217.983V51.3022C218.172 51.0801 218.422 50.9691 218.731 50.9691C219.107 50.9691 219.402 51.1076 219.614 51.3847C219.829 51.66 219.936 52.0481 219.936 52.5493V52.5948ZM219.113 52.535C219.113 52.2237 219.064 51.9969 218.965 51.8545C218.866 51.7103 218.719 51.6381 218.524 51.6381C218.262 51.6381 218.081 51.7454 217.983 51.9599V53.1756C218.083 53.392 218.265 53.5002 218.529 53.5002C218.795 53.5002 218.97 53.3693 219.053 53.1073C219.093 52.982 219.113 52.7913 219.113 52.535ZM220.317 52.5379C220.317 52.2323 220.376 51.9599 220.494 51.7207C220.612 51.4816 220.781 51.2965 221.001 51.1655C221.223 51.0345 221.48 50.9691 221.772 50.9691C222.188 50.9691 222.527 51.0962 222.789 51.3506C223.053 51.6049 223.2 51.9504 223.23 52.387L223.236 52.5977C223.236 53.0703 223.104 53.4499 222.84 53.7366C222.576 54.0213 222.222 54.1636 221.778 54.1636C221.334 54.1636 220.979 54.0213 220.713 53.7366C220.449 53.4518 220.317 53.0646 220.317 52.5749V52.5379ZM221.14 52.5977C221.14 52.89 221.195 53.114 221.305 53.2696C221.415 53.4234 221.573 53.5002 221.778 53.5002C221.977 53.5002 222.133 53.4243 222.245 53.2725C222.357 53.1187 222.413 52.8738 222.413 52.5379C222.413 52.2512 222.357 52.0292 222.245 51.8716C222.133 51.7141 221.975 51.6353 221.772 51.6353C221.571 51.6353 221.415 51.7141 221.305 51.8716C221.195 52.0273 221.14 52.2693 221.14 52.5977ZM223.614 52.5436C223.614 52.0633 223.722 51.6809 223.936 51.3961C224.153 51.1114 224.448 50.9691 224.822 50.9691C225.122 50.9691 225.369 51.081 225.565 51.305V49.7334H226.39V54.1067H225.647L225.607 53.7793C225.402 54.0355 225.139 54.1636 224.816 54.1636C224.453 54.1636 224.162 54.0213 223.942 53.7366C223.724 53.4499 223.614 53.0523 223.614 52.5436ZM224.437 52.6034C224.437 52.8919 224.488 53.113 224.588 53.2668C224.689 53.4205 224.835 53.4974 225.027 53.4974C225.281 53.4974 225.46 53.3901 225.565 53.1756V51.9599C225.462 51.7454 225.285 51.6381 225.032 51.6381C224.636 51.6381 224.437 51.9599 224.437 52.6034ZM228.179 52.9422L228.748 51.026H229.631L228.392 54.585L228.324 54.7473C228.14 55.1497 227.836 55.3509 227.413 55.3509C227.293 55.3509 227.172 55.3329 227.048 55.2968V54.6733L227.173 54.6761C227.329 54.6761 227.445 54.6524 227.521 54.605C227.599 54.5575 227.659 54.4787 227.703 54.3686L227.8 54.1152L226.721 51.026H227.606L228.179 52.9422Z" fill="#424242"/>
<rect x="208.827" y="45.9201" width="29.1556" height="13.12" stroke="#232946" stroke-width="1.45778"/>
</g>
<g filter="url(#filter2_d)">
<rect x="180.4" y="91.4756" width="24.4178" height="14.5778" fill="#FFFFFE"/>
<path d="M190.265 97.6464C190.484 97.3844 190.758 97.2535 191.088 97.2535C191.756 97.2535 192.095 97.6416 192.105 98.418V100.391H191.282V98.4408C191.282 98.2642 191.244 98.1342 191.168 98.0507C191.092 97.9653 190.966 97.9226 190.789 97.9226C190.548 97.9226 190.374 98.0156 190.265 98.2016V100.391H189.443V96.0178H190.265V97.6464ZM194.69 100.391H193.867V97.2193L192.885 97.524V96.8549L194.602 96.2399H194.69V100.391Z" fill="#424242"/>
<rect x="181.129" y="92.2045" width="22.96" height="13.12" stroke="#232946" stroke-width="1.45778"/>
</g>
<g filter="url(#filter3_d)">
<rect x="216.48" y="91.4756" width="21.1378" height="14.5778" fill="#FFFFFE"/>
<path d="M228.316 98.8792C228.316 99.3538 228.208 99.7344 227.991 100.021C227.777 100.306 227.486 100.448 227.12 100.448C226.809 100.448 226.557 100.34 226.365 100.123V101.576H225.543V97.3104H226.306L226.334 97.6122C226.533 97.3731 226.793 97.2535 227.114 97.2535C227.494 97.2535 227.789 97.3939 228 97.6749C228.21 97.9558 228.316 98.343 228.316 98.8365V98.8792ZM227.493 98.8194C227.493 98.5328 227.442 98.3117 227.339 98.156C227.239 98.0004 227.091 97.9226 226.898 97.9226C226.64 97.9226 226.462 98.0213 226.365 98.2187V99.48C226.466 99.6831 226.645 99.7847 226.904 99.7847C227.296 99.7847 227.493 99.4629 227.493 98.8194Z" fill="#424242"/>
<rect x="217.209" y="92.2045" width="19.68" height="13.12" stroke="#232946" stroke-width="1.45778"/>
</g>
<g filter="url(#filter4_d)">
<rect x="216.844" y="117.716" width="20.7733" height="14.5778" fill="#FFFFFE"/>
<path d="M227.691 126.631C227.653 126.557 227.626 126.465 227.609 126.355C227.409 126.577 227.15 126.688 226.831 126.688C226.529 126.688 226.279 126.601 226.08 126.426C225.882 126.252 225.783 126.032 225.783 125.766C225.783 125.439 225.904 125.189 226.145 125.014C226.388 124.839 226.738 124.751 227.196 124.749H227.574V124.573C227.574 124.43 227.537 124.317 227.463 124.231C227.391 124.146 227.276 124.103 227.119 124.103C226.98 124.103 226.871 124.136 226.791 124.203C226.714 124.269 226.675 124.36 226.675 124.476H225.852C225.852 124.298 225.907 124.132 226.017 123.981C226.127 123.829 226.283 123.71 226.484 123.625C226.685 123.537 226.911 123.494 227.162 123.494C227.541 123.494 227.842 123.59 228.064 123.781C228.288 123.971 228.4 124.239 228.4 124.584V125.92C228.402 126.212 228.443 126.433 228.522 126.583V126.631H227.691ZM227.011 126.059C227.132 126.059 227.244 126.032 227.347 125.979C227.449 125.924 227.525 125.851 227.574 125.76V125.231H227.267C226.855 125.231 226.636 125.373 226.609 125.658L226.606 125.706C226.606 125.809 226.642 125.893 226.714 125.959C226.787 126.026 226.885 126.059 227.011 126.059Z" fill="#424242"/>
<rect x="217.573" y="118.445" width="19.3156" height="13.12" stroke="#232946" stroke-width="1.45778"/>
</g>
<g filter="url(#filter5_d)">
<rect x="249.279" y="117.716" width="20.7733" height="14.5778" fill="#FFFFFE"/>
<path d="M259.21 126.631H258.384V122.258H259.21V126.631ZM260.759 126.631H259.933V123.551H260.759V126.631ZM259.885 122.753C259.885 122.63 259.925 122.529 260.007 122.449C260.091 122.369 260.204 122.329 260.346 122.329C260.486 122.329 260.598 122.369 260.682 122.449C260.765 122.529 260.807 122.63 260.807 122.753C260.807 122.879 260.764 122.981 260.679 123.061C260.595 123.141 260.484 123.181 260.346 123.181C260.207 123.181 260.095 123.141 260.01 123.061C259.926 122.981 259.885 122.879 259.885 122.753Z" fill="#424242"/>
<rect x="250.008" y="118.445" width="19.3156" height="13.12" stroke="#232946" stroke-width="1.45778"/>
</g>
<g filter="url(#filter6_d)">
<rect x="281.717" y="117.716" width="20.7733" height="14.5778" fill="#FFFFFE"/>
<path d="M291.647 126.631H290.822V122.258H291.647V126.631ZM293.196 126.631H292.371V123.551H293.196V126.631ZM292.322 122.753C292.322 122.63 292.363 122.529 292.445 122.449C292.528 122.369 292.641 122.329 292.783 122.329C292.924 122.329 293.036 122.369 293.119 122.449C293.203 122.529 293.245 122.63 293.245 122.753C293.245 122.879 293.202 122.981 293.117 123.061C293.033 123.141 292.922 123.181 292.783 123.181C292.645 123.181 292.533 123.141 292.447 123.061C292.364 122.981 292.322 122.879 292.322 122.753Z" fill="#424242"/>
<rect x="282.446" y="118.445" width="19.3156" height="13.12" stroke="#232946" stroke-width="1.45778"/>
</g>
<g filter="url(#filter7_d)">
<rect x="249.279" y="91.4756" width="22.5956" height="14.5778" fill="#FFFFFE"/>
<path d="M260.186 100.078C259.983 100.325 259.702 100.448 259.344 100.448C259.013 100.448 258.761 100.353 258.586 100.163C258.414 99.9735 258.325 99.6954 258.322 99.3291V97.3104H259.144V99.3006C259.144 99.6214 259.291 99.7818 259.583 99.7818C259.862 99.7818 260.054 99.685 260.158 99.4914V97.3104H260.984V100.391H260.209L260.186 100.078ZM262.473 100.391H261.647V96.0178H262.473V100.391Z" fill="#424242"/>
<rect x="250.008" y="92.2045" width="21.1378" height="13.12" stroke="#232946" stroke-width="1.45778"/>
</g>
<g filter="url(#filter8_d)">
<rect x="27.334" y="91.4756" width="27.6978" height="14.5778" fill="#FFFFFE"/>
<path d="M37.3813 96.5531V97.3104H37.908V97.914H37.3813V99.4515C37.3813 99.5654 37.4031 99.647 37.4467 99.6964C37.4904 99.7457 37.5739 99.7704 37.6973 99.7704C37.7884 99.7704 37.8691 99.7638 37.9393 99.7505V100.374C37.778 100.423 37.6119 100.448 37.4411 100.448C36.864 100.448 36.5698 100.157 36.5584 99.574V97.914H36.1086V97.3104H36.5584V96.5531H37.3813ZM39.2348 100.391H38.4091V97.3104H39.2348V100.391ZM38.3607 96.5132C38.3607 96.3898 38.4015 96.2883 38.4831 96.2085C38.5667 96.1288 38.6796 96.089 38.822 96.089C38.9624 96.089 39.0744 96.1288 39.1579 96.2085C39.2414 96.2883 39.2832 96.3898 39.2832 96.5132C39.2832 96.6385 39.2405 96.741 39.1551 96.8207C39.0716 96.9004 38.9605 96.9403 38.822 96.9403C38.6834 96.9403 38.5714 96.9004 38.486 96.8207C38.4025 96.741 38.3607 96.6385 38.3607 96.5132ZM40.9004 96.5531V97.3104H41.4272V97.914H40.9004V99.4515C40.9004 99.5654 40.9223 99.647 40.9659 99.6964C41.0096 99.7457 41.0931 99.7704 41.2165 99.7704C41.3076 99.7704 41.3882 99.7638 41.4585 99.7505V100.374C41.2971 100.423 41.1311 100.448 40.9602 100.448C40.3832 100.448 40.089 100.157 40.0776 99.574V97.914H39.6277V97.3104H40.0776V96.5531H40.9004ZM42.754 100.391H41.9283V96.0178H42.754V100.391ZM44.8524 100.448C44.4006 100.448 44.0324 100.309 43.7476 100.032C43.4648 99.7552 43.3234 99.386 43.3234 98.9248V98.8451C43.3234 98.5357 43.3832 98.2595 43.5028 98.0165C43.6224 97.7717 43.7913 97.5838 44.0096 97.4528C44.2298 97.3199 44.4803 97.2535 44.7613 97.2535C45.1826 97.2535 45.5139 97.3863 45.7549 97.6521C45.9979 97.9178 46.1194 98.2946 46.1194 98.7824V99.1184H44.1576C44.1842 99.3196 44.2639 99.481 44.3968 99.6024C44.5316 99.7239 44.7015 99.7847 44.9065 99.7847C45.2235 99.7847 45.4712 99.6698 45.6496 99.4401L46.0539 99.8928C45.9305 100.067 45.7635 100.204 45.5528 100.303C45.3421 100.4 45.1086 100.448 44.8524 100.448ZM44.7584 97.9197C44.5952 97.9197 44.4623 97.9748 44.3598 98.0849C44.2592 98.195 44.1947 98.3525 44.1662 98.5575H45.3108V98.492C45.307 98.3098 45.2576 98.1693 45.1627 98.0706C45.0678 97.97 44.933 97.9197 44.7584 97.9197Z" fill="#424242"/>
<rect x="28.0629" y="92.2045" width="26.24" height="13.12" stroke="#232946" stroke-width="1.45778"/>
</g>
<g filter="url(#filter9_d)">
<rect x="66.6934" y="91.4756" width="30.9778" height="14.5778" fill="#FFFFFE"/>
<path d="M76.5271 97.3104L76.5527 97.6549C76.771 97.3873 77.0662 97.2535 77.4382 97.2535C77.8349 97.2535 78.1073 97.4101 78.2554 97.7233C78.4717 97.4101 78.7802 97.2535 79.1807 97.2535C79.5148 97.2535 79.7634 97.3512 79.9267 97.5467C80.0899 97.7403 80.1715 98.0327 80.1715 98.4237V100.391H79.3458V98.4265C79.3458 98.2519 79.3117 98.1247 79.2433 98.045C79.175 97.9634 79.0545 97.9226 78.8817 97.9226C78.635 97.9226 78.4642 98.0403 78.3692 98.2756L78.3721 100.391H77.5492V98.4294C77.5492 98.251 77.5141 98.1219 77.4439 98.0422C77.3737 97.9624 77.2541 97.9226 77.0851 97.9226C76.8517 97.9226 76.6827 98.0194 76.5783 98.213V100.391H75.7555V97.3104H76.5271ZM82.2244 100.448C81.7726 100.448 81.4044 100.309 81.1197 100.032C80.8368 99.7552 80.6954 99.386 80.6954 98.9248V98.8451C80.6954 98.5357 80.7552 98.2595 80.8748 98.0165C80.9944 97.7717 81.1633 97.5838 81.3816 97.4528C81.6018 97.3199 81.8523 97.2535 82.1333 97.2535C82.5547 97.2535 82.8859 97.3863 83.127 97.6521C83.3699 97.9178 83.4914 98.2946 83.4914 98.7824V99.1184H81.5297C81.5562 99.3196 81.636 99.481 81.7688 99.6024C81.9036 99.7239 82.0735 99.7847 82.2785 99.7847C82.5955 99.7847 82.8432 99.6698 83.0216 99.4401L83.4259 99.8928C83.3025 100.067 83.1355 100.204 82.9248 100.303C82.7141 100.4 82.4806 100.448 82.2244 100.448ZM82.1304 97.9197C81.9672 97.9197 81.8343 97.9748 81.7318 98.0849C81.6312 98.195 81.5667 98.3525 81.5382 98.5575H82.6828V98.492C82.679 98.3098 82.6296 98.1693 82.5347 98.0706C82.4398 97.97 82.3051 97.9197 82.1304 97.9197ZM84.9463 96.5531V97.3104H85.4731V97.914H84.9463V99.4515C84.9463 99.5654 84.9682 99.647 85.0118 99.6964C85.0555 99.7457 85.139 99.7704 85.2624 99.7704C85.3535 99.7704 85.4342 99.7638 85.5044 99.7505V100.374C85.343 100.423 85.177 100.448 85.0061 100.448C84.4291 100.448 84.1349 100.157 84.1235 99.574V97.914H83.6736V97.3104H84.1235V96.5531H84.9463ZM87.7167 100.391C87.6787 100.317 87.6512 100.225 87.6341 100.115C87.4348 100.337 87.1757 100.448 86.8568 100.448C86.555 100.448 86.3045 100.361 86.1051 100.186C85.9077 100.011 85.809 99.7913 85.809 99.5256C85.809 99.1991 85.9296 98.9485 86.1706 98.7739C86.4136 98.5993 86.7638 98.511 87.2213 98.5091H87.5999V98.3326C87.5999 98.1902 87.5629 98.0763 87.4889 97.9909C87.4168 97.9055 87.3019 97.8628 87.1444 97.8628C87.0058 97.8628 86.8967 97.896 86.817 97.9624C86.7391 98.0289 86.7002 98.12 86.7002 98.2358H85.8774C85.8774 98.0573 85.9324 97.8922 86.0425 97.7403C86.1526 97.5885 86.3082 97.4699 86.5095 97.3844C86.7107 97.2971 86.9365 97.2535 87.1871 97.2535C87.5667 97.2535 87.8676 97.3493 88.0897 97.541C88.3136 97.7309 88.4256 97.9985 88.4256 98.344V99.6793C88.4275 99.9716 88.4683 100.193 88.5481 100.343V100.391H87.7167ZM87.0362 99.8188C87.1577 99.8188 87.2697 99.7922 87.3722 99.7391C87.4747 99.6841 87.5506 99.611 87.5999 99.5199V98.9903H87.2924C86.8805 98.9903 86.6613 99.1326 86.6347 99.4174L86.6319 99.4658C86.6319 99.5683 86.6679 99.6527 86.7401 99.7192C86.8122 99.7856 86.9109 99.8188 87.0362 99.8188Z" fill="#424242"/>
<rect x="67.4222" y="92.2045" width="29.52" height="13.12" stroke="#232946" stroke-width="1.45778"/>
</g>
<g filter="url(#filter10_d)">
<rect x="109.334" y="91.4756" width="30.9778" height="14.5778" fill="#FFFFFE"/>
<path d="M119.168 97.3104L119.193 97.6549C119.412 97.3873 119.707 97.2535 120.079 97.2535C120.476 97.2535 120.748 97.4101 120.896 97.7233C121.112 97.4101 121.421 97.2535 121.821 97.2535C122.155 97.2535 122.404 97.3512 122.567 97.5467C122.731 97.7403 122.812 98.0327 122.812 98.4237V100.391H121.986V98.4265C121.986 98.2519 121.952 98.1247 121.884 98.045C121.816 97.9634 121.695 97.9226 121.522 97.9226C121.276 97.9226 121.105 98.0403 121.01 98.2756L121.013 100.391H120.19V98.4294C120.19 98.251 120.155 98.1219 120.085 98.0422C120.014 97.9624 119.895 97.9226 119.726 97.9226C119.492 97.9226 119.323 98.0194 119.219 98.213V100.391H118.396V97.3104H119.168ZM124.865 100.448C124.413 100.448 124.045 100.309 123.76 100.032C123.477 99.7552 123.336 99.386 123.336 98.9248V98.8451C123.336 98.5357 123.396 98.2595 123.515 98.0165C123.635 97.7717 123.804 97.5838 124.022 97.4528C124.242 97.3199 124.493 97.2535 124.774 97.2535C125.195 97.2535 125.527 97.3863 125.768 97.6521C126.011 97.9178 126.132 98.2946 126.132 98.7824V99.1184H124.17C124.197 99.3196 124.277 99.481 124.409 99.6024C124.544 99.7239 124.714 99.7847 124.919 99.7847C125.236 99.7847 125.484 99.6698 125.662 99.4401L126.067 99.8928C125.943 100.067 125.776 100.204 125.565 100.303C125.355 100.4 125.121 100.448 124.865 100.448ZM124.771 97.9197C124.608 97.9197 124.475 97.9748 124.372 98.0849C124.272 98.195 124.207 98.3525 124.179 98.5575H125.323V98.492C125.32 98.3098 125.27 98.1693 125.175 98.0706C125.08 97.97 124.946 97.9197 124.771 97.9197ZM127.587 96.5531V97.3104H128.114V97.914H127.587V99.4515C127.587 99.5654 127.609 99.647 127.652 99.6964C127.696 99.7457 127.78 99.7704 127.903 99.7704C127.994 99.7704 128.075 99.7638 128.145 99.7505V100.374C127.984 100.423 127.818 100.448 127.647 100.448C127.07 100.448 126.775 100.157 126.764 99.574V97.914H126.314V97.3104H126.764V96.5531H127.587ZM130.357 100.391C130.319 100.317 130.292 100.225 130.275 100.115C130.075 100.337 129.816 100.448 129.497 100.448C129.196 100.448 128.945 100.361 128.746 100.186C128.548 100.011 128.45 99.7913 128.45 99.5256C128.45 99.1991 128.57 98.9485 128.811 98.7739C129.054 98.5993 129.404 98.511 129.862 98.5091H130.241V98.3326C130.241 98.1902 130.204 98.0763 130.13 97.9909C130.057 97.9055 129.943 97.8628 129.785 97.8628C129.646 97.8628 129.537 97.896 129.458 97.9624C129.38 98.0289 129.341 98.12 129.341 98.2358H128.518C128.518 98.0573 128.573 97.8922 128.683 97.7403C128.793 97.5885 128.949 97.4699 129.15 97.3844C129.351 97.2971 129.577 97.2535 129.828 97.2535C130.207 97.2535 130.508 97.3493 130.73 97.541C130.954 97.7309 131.066 97.9985 131.066 98.344V99.6793C131.068 99.9716 131.109 100.193 131.189 100.343V100.391H130.357ZM129.677 99.8188C129.798 99.8188 129.91 99.7922 130.013 99.7391C130.115 99.6841 130.191 99.611 130.241 99.5199V98.9903H129.933C129.521 98.9903 129.302 99.1326 129.275 99.4174L129.273 99.4658C129.273 99.5683 129.309 99.6527 129.381 99.7192C129.453 99.7856 129.552 99.8188 129.677 99.8188Z" fill="#424242"/>
<rect x="110.063" y="92.2045" width="29.52" height="13.12" stroke="#232946" stroke-width="1.45778"/>
</g>
<g filter="url(#filter11_d)">
<rect x="67.0586" y="47.0134" width="30.6133" height="14.5778" fill="#FFFFFE"/>
<path d="M76.9236 53.1842C77.1419 52.9223 77.4162 52.7913 77.7465 52.7913C78.4146 52.7913 78.7535 53.1795 78.763 53.9558V55.929H77.9401V53.9786C77.9401 53.8021 77.9021 53.6721 77.8262 53.5885C77.7503 53.5031 77.6241 53.4604 77.4475 53.4604C77.2065 53.4604 77.0318 53.5534 76.9236 53.7394V55.929H76.1008V51.5556H76.9236V53.1842ZM80.8016 55.9859C80.3498 55.9859 79.9816 55.8473 79.6968 55.5702C79.414 55.2931 79.2726 54.9239 79.2726 54.4626V54.3829C79.2726 54.0735 79.3324 53.7973 79.452 53.5544C79.5716 53.3095 79.7405 53.1216 79.9588 52.9906C80.179 52.8578 80.4295 52.7913 80.7105 52.7913C81.1318 52.7913 81.4631 52.9242 81.7041 53.1899C81.9471 53.4557 82.0686 53.8325 82.0686 54.3203V54.6562H80.1068C80.1334 54.8575 80.2131 55.0188 80.346 55.1403C80.4808 55.2618 80.6507 55.3225 80.8557 55.3225C81.1727 55.3225 81.4204 55.2077 81.5988 54.978L82.0031 55.4307C81.8797 55.6053 81.7127 55.742 81.502 55.8407C81.2913 55.9375 81.0578 55.9859 80.8016 55.9859ZM80.7076 53.4576C80.5444 53.4576 80.4115 53.5126 80.309 53.6227C80.2084 53.7328 80.1439 53.8903 80.1154 54.0953H81.26V54.0299C81.2562 53.8476 81.2068 53.7072 81.1119 53.6085C81.017 53.5079 80.8822 53.4576 80.7076 53.4576ZM84.3236 55.929C84.2856 55.8549 84.2581 55.7629 84.241 55.6528C84.0417 55.8749 83.7826 55.9859 83.4637 55.9859C83.1619 55.9859 82.9114 55.8986 82.712 55.724C82.5146 55.5493 82.4159 55.3291 82.4159 55.0634C82.4159 54.7369 82.5365 54.4864 82.7775 54.3117C83.0205 54.1371 83.3707 54.0488 83.8282 54.0469H84.2068V53.8704C84.2068 53.7281 84.1698 53.6142 84.0958 53.5287C84.0237 53.4433 83.9088 53.4006 83.7513 53.4006C83.6127 53.4006 83.5036 53.4338 83.4239 53.5003C83.346 53.5667 83.3071 53.6578 83.3071 53.7736H82.4843C82.4843 53.5952 82.5393 53.43 82.6494 53.2782C82.7595 53.1263 82.9152 53.0077 83.1164 52.9223C83.3176 52.835 83.5434 52.7913 83.794 52.7913C84.1736 52.7913 84.4745 52.8872 84.6966 53.0789C84.9205 53.2687 85.0325 53.5363 85.0325 53.8818V55.2171C85.0344 55.5095 85.0752 55.7306 85.155 55.8806V55.929H84.3236ZM83.6431 55.3567C83.7646 55.3567 83.8766 55.3301 83.9791 55.2769C84.0816 55.2219 84.1575 55.1488 84.2068 55.0577V54.5281H83.8993C83.4874 54.5281 83.2682 54.6705 83.2416 54.9552L83.2388 55.0036C83.2388 55.1061 83.2748 55.1906 83.347 55.257C83.4191 55.3234 83.5178 55.3567 83.6431 55.3567ZM85.5365 54.3658C85.5365 53.8856 85.6437 53.5031 85.8582 53.2184C86.0746 52.9337 86.3698 52.7913 86.7437 52.7913C87.0436 52.7913 87.2913 52.9033 87.4868 53.1273V51.5556H88.3125V55.929H87.5694L87.5295 55.6015C87.3245 55.8578 87.0607 55.9859 86.738 55.9859C86.3755 55.9859 86.0841 55.8435 85.8639 55.5588C85.6456 55.2722 85.5365 54.8745 85.5365 54.3658ZM86.3593 54.4256C86.3593 54.7141 86.4096 54.9353 86.5102 55.089C86.6108 55.2428 86.757 55.3196 86.9487 55.3196C87.2031 55.3196 87.3824 55.2124 87.4868 54.9979V53.7821C87.3843 53.5677 87.2069 53.4604 86.9544 53.4604C86.5577 53.4604 86.3593 53.7821 86.3593 54.4256Z" fill="#424242"/>
<rect x="67.7875" y="47.7423" width="29.1556" height="13.12" stroke="#232946" stroke-width="1.45778"/>
</g>
<path d="M123.547 18.9512V18.5867C123.346 18.5867 123.183 18.7499 123.183 18.9512H123.547ZM123.547 54.3023V54.6667C123.749 54.6667 123.912 54.5036 123.912 54.3023H123.547ZM149.423 18.5867H123.547V19.3156H149.423V18.5867ZM123.183 18.9512V54.3023H123.912V18.9512H123.183ZM123.547 53.9378H97.6719V54.6667H123.547V53.9378Z" fill="#232946"/>
<path d="M82.3639 76.5335V76.898C82.5651 76.898 82.7283 76.7348 82.7283 76.5335H82.3639ZM82.1816 76.5335V76.1691C81.9804 76.1691 81.8172 76.3323 81.8172 76.5335H82.1816ZM81.9994 61.5913V76.5335H82.7283V61.5913H81.9994ZM82.3639 76.1691H82.1816V76.898H82.3639V76.1691ZM81.8172 76.5335V91.4758H82.5461V76.5335H81.8172Z" fill="#232946"/>
<path d="M61.0446 54.3022V53.9378C60.8433 53.9378 60.6801 54.101 60.6801 54.3022H61.0446ZM61.0446 98.7645V99.1289C61.2459 99.1289 61.409 98.9657 61.409 98.7645H61.0446ZM67.0579 53.9378H61.0446V54.6667H67.0579V53.9378ZM60.6801 54.3022V98.7645H61.409V54.3022H60.6801ZM61.0446 98.4H55.0312V99.1289H61.0446V98.4Z" fill="#232946"/>
<path d="M103.503 54.3022H103.867C103.867 54.101 103.704 53.9378 103.503 53.9378V54.3022ZM103.503 98.7645H103.139C103.139 98.9657 103.302 99.1289 103.503 99.1289V98.7645ZM97.6719 54.6667H103.503V53.9378H97.6719V54.6667ZM103.139 54.3022V98.7645H103.867V54.3022H103.139ZM103.503 99.1289H109.334V98.4H103.503V99.1289Z" fill="#232946"/>
<path d="M97.6719 99.1288H109.334V98.4H97.6719V99.1288Z" fill="#232946"/>
<path d="M55.0312 99.1288H66.6935V98.4H55.0312V99.1288Z" fill="#232946"/>
<path d="M193.519 18.9512H193.884C193.884 18.7499 193.72 18.5867 193.519 18.5867V18.9512ZM193.519 52.4801H193.155C193.155 52.6813 193.318 52.8445 193.519 52.8445V52.4801ZM178.941 19.3156H193.519V18.5867H178.941V19.3156ZM193.155 18.9512V52.4801H193.884V18.9512H193.155ZM193.519 52.8445H208.097V52.1156H193.519V52.8445Z" fill="#232946"/>
<path d="M206.458 52.4802V52.1158C206.257 52.1158 206.094 52.2789 206.094 52.4802H206.458ZM206.458 98.7647V99.1291C206.66 99.1291 206.823 98.9659 206.823 98.7647H206.458ZM208.098 52.1158H206.458V52.8447H208.098V52.1158ZM206.094 52.4802V98.7647H206.823V52.4802H206.094ZM206.458 98.4002H204.818V99.1291H206.458V98.4002Z" fill="#232946"/>
<path d="M223.404 75.6224H223.04C223.04 75.8237 223.203 75.9868 223.404 75.9868V75.6224ZM227.049 75.6224H227.413C227.413 75.4211 227.25 75.2579 227.049 75.2579V75.6224ZM223.04 59.769V75.6224H223.769V59.769H223.04ZM223.404 75.9868H227.049V75.2579H223.404V75.9868ZM226.684 75.6224V91.4757H227.413V75.6224H226.684Z" fill="#232946"/>
<path d="M243.995 52.4802H244.36C244.36 52.2789 244.197 52.1158 243.995 52.1158V52.4802ZM243.995 98.7647H243.631C243.631 98.9659 243.794 99.1291 243.995 99.1291V98.7647ZM238.711 52.8447H243.995V52.1158H238.711V52.8447ZM243.631 52.4802V98.7647H244.36V52.4802H243.631ZM243.995 99.1291H249.28V98.4002H243.995V99.1291Z" fill="#232946"/>
<path d="M227.049 111.885H226.684C226.684 112.086 226.848 112.249 227.049 112.249V111.885ZM227.231 111.885H227.595C227.595 111.683 227.432 111.52 227.231 111.52V111.885ZM226.684 106.053V111.885H227.413V106.053H226.684ZM227.049 112.249H227.231V111.52H227.049V112.249ZM226.867 111.885V117.716H227.595V111.885H226.867Z" fill="#232946"/>
<path d="M260.577 111.885V112.249C260.778 112.249 260.942 112.086 260.942 111.885H260.577ZM259.666 111.885V111.52C259.465 111.52 259.302 111.683 259.302 111.885H259.666ZM260.213 106.053V111.885H260.942V106.053H260.213ZM260.577 111.52H259.666V112.249H260.577V111.52ZM259.302 111.885V117.716H260.03V111.885H259.302Z" fill="#232946"/>
<path d="M276.795 98.7644H277.159C277.159 98.5631 276.996 98.4 276.795 98.4V98.7644ZM276.795 125.004H276.431C276.431 125.206 276.594 125.369 276.795 125.369V125.004ZM271.875 99.1288H276.795V98.4H271.875V99.1288ZM276.431 98.7644V125.004H277.159V98.7644H276.431ZM276.795 125.369H281.715V124.64H276.795V125.369Z" fill="#232946"/>
<path d="M270.053 125.369H281.715V124.64H270.053V125.369Z" fill="#232946"/>
<circle cx="-2.18576" cy="220.489" r="91.1111" fill="#5758FA"/>
<circle cx="328" cy="-47.7422" r="91.1111" fill="#5758FA"/>
</g>
<defs>
<filter id="filter0_d" x="147.964" y="11.6624" width="30.9778" height="16.0356" filterUnits="userSpaceOnUse" color-interpolation-filters="sRGB">
<feFlood flood-opacity="0" result="BackgroundImageFix"/>
<feColorMatrix in="SourceAlpha" type="matrix" values="0 0 0 0 0 0 0 0 0 0 0 0 0 0 0 0 0 0 127 0"/>
<feOffset dx="-1.45778" dy="1.45778"/>
<feColorMatrix type="matrix" values="0 0 0 0 0.287581 0 0 0 0 0.287581 0 0 0 0 0.287581 0 0 0 1 0"/>
<feBlend mode="normal" in2="BackgroundImageFix" result="effect1_dropShadow"/>
<feBlend mode="normal" in="SourceGraphic" in2="effect1_dropShadow" result="shape"/>
</filter>
<filter id="filter1_d" x="206.64" y="45.1912" width="32.0711" height="16.0356" filterUnits="userSpaceOnUse" color-interpolation-filters="sRGB">
<feFlood flood-opacity="0" result="BackgroundImageFix"/>
<feColorMatrix in="SourceAlpha" type="matrix" values="0 0 0 0 0 0 0 0 0 0 0 0 0 0 0 0 0 0 127 0"/>
<feOffset dx="-1.45778" dy="1.45778"/>
<feColorMatrix type="matrix" values="0 0 0 0 0.287581 0 0 0 0 0.287581 0 0 0 0 0.287581 0 0 0 1 0"/>
<feBlend mode="normal" in2="BackgroundImageFix" result="effect1_dropShadow"/>
<feBlend mode="normal" in="SourceGraphic" in2="effect1_dropShadow" result="shape"/>
</filter>
<filter id="filter2_d" x="178.943" y="91.4756" width="25.8756" height="16.0356" filterUnits="userSpaceOnUse" color-interpolation-filters="sRGB">
<feFlood flood-opacity="0" result="BackgroundImageFix"/>
<feColorMatrix in="SourceAlpha" type="matrix" values="0 0 0 0 0 0 0 0 0 0 0 0 0 0 0 0 0 0 127 0"/>
<feOffset dx="-1.45778" dy="1.45778"/>
<feColorMatrix type="matrix" values="0 0 0 0 0.287581 0 0 0 0 0.287581 0 0 0 0 0.287581 0 0 0 1 0"/>
<feBlend mode="normal" in2="BackgroundImageFix" result="effect1_dropShadow"/>
<feBlend mode="normal" in="SourceGraphic" in2="effect1_dropShadow" result="shape"/>
</filter>
<filter id="filter3_d" x="215.023" y="91.4756" width="22.5956" height="16.0356" filterUnits="userSpaceOnUse" color-interpolation-filters="sRGB">
<feFlood flood-opacity="0" result="BackgroundImageFix"/>
<feColorMatrix in="SourceAlpha" type="matrix" values="0 0 0 0 0 0 0 0 0 0 0 0 0 0 0 0 0 0 127 0"/>
<feOffset dx="-1.45778" dy="1.45778"/>
<feColorMatrix type="matrix" values="0 0 0 0 0.287581 0 0 0 0 0.287581 0 0 0 0 0.287581 0 0 0 1 0"/>
<feBlend mode="normal" in2="BackgroundImageFix" result="effect1_dropShadow"/>
<feBlend mode="normal" in="SourceGraphic" in2="effect1_dropShadow" result="shape"/>
</filter>
<filter id="filter4_d" x="215.386" y="117.716" width="22.2311" height="16.0356" filterUnits="userSpaceOnUse" color-interpolation-filters="sRGB">
<feFlood flood-opacity="0" result="BackgroundImageFix"/>
<feColorMatrix in="SourceAlpha" type="matrix" values="0 0 0 0 0 0 0 0 0 0 0 0 0 0 0 0 0 0 127 0"/>
<feOffset dx="-1.45778" dy="1.45778"/>
<feColorMatrix type="matrix" values="0 0 0 0 0.287581 0 0 0 0 0.287581 0 0 0 0 0.287581 0 0 0 1 0"/>
<feBlend mode="normal" in2="BackgroundImageFix" result="effect1_dropShadow"/>
<feBlend mode="normal" in="SourceGraphic" in2="effect1_dropShadow" result="shape"/>
</filter>
<filter id="filter5_d" x="247.822" y="117.716" width="22.2311" height="16.0356" filterUnits="userSpaceOnUse" color-interpolation-filters="sRGB">
<feFlood flood-opacity="0" result="BackgroundImageFix"/>
<feColorMatrix in="SourceAlpha" type="matrix" values="0 0 0 0 0 0 0 0 0 0 0 0 0 0 0 0 0 0 127 0"/>
<feOffset dx="-1.45778" dy="1.45778"/>
<feColorMatrix type="matrix" values="0 0 0 0 0.287581 0 0 0 0 0.287581 0 0 0 0 0.287581 0 0 0 1 0"/>
<feBlend mode="normal" in2="BackgroundImageFix" result="effect1_dropShadow"/>
<feBlend mode="normal" in="SourceGraphic" in2="effect1_dropShadow" result="shape"/>
</filter>
<filter id="filter6_d" x="280.259" y="117.716" width="22.2311" height="16.0356" filterUnits="userSpaceOnUse" color-interpolation-filters="sRGB">
<feFlood flood-opacity="0" result="BackgroundImageFix"/>
<feColorMatrix in="SourceAlpha" type="matrix" values="0 0 0 0 0 0 0 0 0 0 0 0 0 0 0 0 0 0 127 0"/>
<feOffset dx="-1.45778" dy="1.45778"/>
<feColorMatrix type="matrix" values="0 0 0 0 0.287581 0 0 0 0 0.287581 0 0 0 0 0.287581 0 0 0 1 0"/>
<feBlend mode="normal" in2="BackgroundImageFix" result="effect1_dropShadow"/>
<feBlend mode="normal" in="SourceGraphic" in2="effect1_dropShadow" result="shape"/>
</filter>
<filter id="filter7_d" x="247.822" y="91.4756" width="24.0533" height="16.0356" filterUnits="userSpaceOnUse" color-interpolation-filters="sRGB">
<feFlood flood-opacity="0" result="BackgroundImageFix"/>
<feColorMatrix in="SourceAlpha" type="matrix" values="0 0 0 0 0 0 0 0 0 0 0 0 0 0 0 0 0 0 127 0"/>
<feOffset dx="-1.45778" dy="1.45778"/>
<feColorMatrix type="matrix" values="0 0 0 0 0.287581 0 0 0 0 0.287581 0 0 0 0 0.287581 0 0 0 1 0"/>
<feBlend mode="normal" in2="BackgroundImageFix" result="effect1_dropShadow"/>
<feBlend mode="normal" in="SourceGraphic" in2="effect1_dropShadow" result="shape"/>
</filter>
<filter id="filter8_d" x="25.8762" y="91.4756" width="29.1556" height="16.0356" filterUnits="userSpaceOnUse" color-interpolation-filters="sRGB">
<feFlood flood-opacity="0" result="BackgroundImageFix"/>
<feColorMatrix in="SourceAlpha" type="matrix" values="0 0 0 0 0 0 0 0 0 0 0 0 0 0 0 0 0 0 127 0"/>
<feOffset dx="-1.45778" dy="1.45778"/>
<feColorMatrix type="matrix" values="0 0 0 0 0.287581 0 0 0 0 0.287581 0 0 0 0 0.287581 0 0 0 1 0"/>
<feBlend mode="normal" in2="BackgroundImageFix" result="effect1_dropShadow"/>
<feBlend mode="normal" in="SourceGraphic" in2="effect1_dropShadow" result="shape"/>
</filter>
<filter id="filter9_d" x="65.2356" y="91.4756" width="32.4356" height="16.0356" filterUnits="userSpaceOnUse" color-interpolation-filters="sRGB">
<feFlood flood-opacity="0" result="BackgroundImageFix"/>
<feColorMatrix in="SourceAlpha" type="matrix" values="0 0 0 0 0 0 0 0 0 0 0 0 0 0 0 0 0 0 127 0"/>
<feOffset dx="-1.45778" dy="1.45778"/>
<feColorMatrix type="matrix" values="0 0 0 0 0.287581 0 0 0 0 0.287581 0 0 0 0 0.287581 0 0 0 1 0"/>
<feBlend mode="normal" in2="BackgroundImageFix" result="effect1_dropShadow"/>
<feBlend mode="normal" in="SourceGraphic" in2="effect1_dropShadow" result="shape"/>
</filter>
<filter id="filter10_d" x="107.876" y="91.4756" width="32.4356" height="16.0356" filterUnits="userSpaceOnUse" color-interpolation-filters="sRGB">
<feFlood flood-opacity="0" result="BackgroundImageFix"/>
<feColorMatrix in="SourceAlpha" type="matrix" values="0 0 0 0 0 0 0 0 0 0 0 0 0 0 0 0 0 0 127 0"/>
<feOffset dx="-1.45778" dy="1.45778"/>
<feColorMatrix type="matrix" values="0 0 0 0 0.287581 0 0 0 0 0.287581 0 0 0 0 0.287581 0 0 0 1 0"/>
<feBlend mode="normal" in2="BackgroundImageFix" result="effect1_dropShadow"/>
<feBlend mode="normal" in="SourceGraphic" in2="effect1_dropShadow" result="shape"/>
</filter>
<filter id="filter11_d" x="65.6008" y="47.0134" width="32.0711" height="16.0356" filterUnits="userSpaceOnUse" color-interpolation-filters="sRGB">
<feFlood flood-opacity="0" result="BackgroundImageFix"/>
<feColorMatrix in="SourceAlpha" type="matrix" values="0 0 0 0 0 0 0 0 0 0 0 0 0 0 0 0 0 0 127 0"/>
<feOffset dx="-1.45778" dy="1.45778"/>
<feColorMatrix type="matrix" values="0 0 0 0 0.287581 0 0 0 0 0.287581 0 0 0 0 0.287581 0 0 0 1 0"/>
<feBlend mode="normal" in2="BackgroundImageFix" result="effect1_dropShadow"/>
<feBlend mode="normal" in="SourceGraphic" in2="effect1_dropShadow" result="shape"/>
</filter>
<clipPath id="clip0">
<rect width="328" height="171" fill="white"/>
</clipPath>
</defs>
</svg>
